<svg width="98" height="26" viewBox="0 0 98 26" fill="none" xmlns="http://www.w3.org/2000/svg">
  <g clip-path="url(#clip0_653_28596)">
    <path
      d="M28.8173 20.826V15.1853C29.4271 16.0347 30.6032 16.5573 31.9317 16.5573C35.1549 16.5573 37.2239 14.2488 37.2239 10.8949C37.2239 7.54091 35.2856 5.23238 32.1277 5.23238C30.6685 5.23238 29.4706 5.84218 28.8173 6.77867V5.40661H26.1603V20.826H28.8173ZM31.6267 14.2488C29.8191 14.2488 28.643 12.9203 28.643 10.8949C28.643 8.86943 29.8191 7.54091 31.6267 7.54091C33.3908 7.54091 34.5669 8.86943 34.5669 10.8949C34.5669 12.9203 33.3908 14.2488 31.6267 14.2488ZM42.7715 5.23238C39.9185 5.23238 38.0673 6.93114 37.9366 9.10903H40.3323C40.3759 8.12897 41.2252 7.23605 42.6408 7.23605C44.0564 7.23605 44.884 7.99834 44.884 9.06543C44.884 9.50103 44.6227 9.80589 44.0782 9.80589H42.0528C39.5918 9.80589 37.9366 11.1344 37.9366 13.2688C37.9366 15.1635 39.4176 16.5573 41.5955 16.5573C43.1635 16.5573 44.4267 15.8387 44.884 14.7497V16.3831H47.5193V9.3268C47.5193 6.84405 45.5592 5.23238 42.7715 5.23238ZM42.2271 14.5755C41.2252 14.5755 40.5283 14.0092 40.5283 13.1598C40.5283 12.2016 41.2905 11.57 42.4231 11.57H44.884V11.7442C44.884 13.3994 43.904 14.5755 42.2271 14.5755ZM55.8691 5.40661H54.5841C53.1685 5.40661 52.3191 5.95108 51.7747 7.34491V5.40661H49.0959V16.3831H51.7747V11.1998C51.7747 9.10903 52.4498 7.64982 54.1486 7.64982H55.8691V5.40661ZM60.925 5.23238C58.0724 5.23238 56.2211 6.93114 56.0905 9.10903H58.4863C58.5297 8.12897 59.3789 7.23605 60.7948 7.23605C62.2101 7.23605 63.0376 7.99834 63.0376 9.06543C63.0376 9.50103 62.777 9.80589 62.2318 9.80589H60.2067C57.7454 9.80589 56.0905 11.1344 56.0905 13.2688C56.0905 15.1635 57.5711 16.5573 59.7494 16.5573C61.3175 16.5573 62.5804 15.8387 63.0376 14.7497V16.3831H65.6736V9.3268C65.6736 6.84405 63.713 5.23238 60.925 5.23238ZM60.3809 14.5755C59.3789 14.5755 58.682 14.0092 58.682 13.1598C58.682 12.2016 59.4443 11.57 60.5771 11.57H63.0376V11.7442C63.0376 13.3994 62.0576 14.5755 60.3809 14.5755ZM70.0588 16.3831V0.702393H67.4023V16.3831H70.0588ZM74.7653 16.3831V0.702393H72.1081V16.3831H74.7653ZM81.0416 5.23238C78.1891 5.23238 76.3376 6.93114 76.2068 9.10903H78.6028C78.6462 8.12897 79.4953 7.23605 80.9114 7.23605C82.3268 7.23605 83.1542 7.99834 83.1542 9.06543C83.1542 9.50103 82.8925 9.80589 82.3485 9.80589H80.3234C77.8616 9.80589 76.2068 11.1344 76.2068 13.2688C76.2068 15.1635 77.6879 16.5573 79.8656 16.5573C81.4343 16.5573 82.6971 15.8387 83.1542 14.7497V16.3831H85.7891V9.3268C85.7891 6.84405 83.8291 5.23238 81.0416 5.23238ZM80.4977 14.5755C79.4953 14.5755 78.7982 14.0092 78.7982 13.1598C78.7982 12.2016 79.5611 11.57 80.6931 11.57H83.1542V11.7442C83.1542 13.3994 82.1742 14.5755 80.4977 14.5755ZM93.0547 10.6553L96.7359 5.40661H93.7959L91.6176 8.56457L89.4175 5.40661H86.4999L90.1581 10.6553L86.1947 16.3831H89.0479L91.6176 12.7243L94.1873 16.3831H97.0187L93.0547 10.6553Z"
      fill="#212121" />
    <path
      d="M17.5832 16.2253C17.5832 16.3579 17.5449 16.4847 17.4754 16.5937H10.1763C9.30842 16.5937 8.60487 17.2972 8.60487 18.1652V22.5796H2.61914V16.5937H7.0334C7.90132 16.5937 8.60487 15.8901 8.60487 15.0221V7.6145H16.8955C17.2747 7.6145 17.5832 7.92295 17.5832 8.30211V16.2247V16.2253Z"
      fill="#212121" />
    <path
      d="M0.000637875 25.1967V17.6239L3.65083 13.9737H5.98634V8.64541L9.63656 4.99512H18.3917C19.3897 4.99512 20.2015 5.807 20.2015 6.80493V14.7275C20.2015 15.0736 20.1028 15.4101 19.916 15.7013L19.8504 15.8033L16.443 19.2107H11.2226V21.5464L7.57249 25.1967H0H0.000637875Z"
      fill="#212121" />
    <path
      d="M19.004 6.806V14.7286C19.004 14.8612 18.9658 14.988 18.8963 15.0969H11.5972C10.7293 15.0969 10.0257 15.8005 10.0257 16.6685V21.0829H4.04004V15.0969H8.45428C9.3222 15.0969 10.0257 14.3934 10.0257 13.5255V6.11841H18.3164C18.6956 6.11841 19.004 6.42686 19.004 6.806Z"
      fill="#FCFCF7" />
  </g>
  <defs>
    <clipPath id="clip0_653_28596">
      <rect width="98" height="24.8101" fill="white" transform="translate(0 0.594971)" />
    </clipPath>
  </defs>
</svg>